<?xml version="1.0" encoding="UTF-8"?> <svg xmlns="http://www.w3.org/2000/svg" id="Layer_1" data-name="Layer 1" viewBox="0 0 123.71 123.71"><defs><style>.cls-1{fill:none;stroke:#fff;stroke-linecap:round;stroke-linejoin:round;stroke-width:4.5px;}</style></defs><title>Ameritrust Homepage Icons</title><g id="staff"><path class="cls-1" d="M13.91,73.39a51.33,51.33,0,1,1,98.71,0"></path><path class="cls-1" d="M93.35,75.15A10.76,10.76,0,0,1,82.73,64.26v-8c0-5.21,4.76-9.44,10.62-9.44S104,51.06,104,56.27v8A10.76,10.76,0,0,1,93.35,75.15Z"></path><path class="cls-1" d="M82.73,78.25l6.19-3.1H99.55l10.61,5.31c5.32,2.66,8,11.31,8,15.93H100.54"></path><path class="cls-1" d="M33.17,75.15A10.76,10.76,0,0,0,43.79,64.26v-8c0-5.21-4.76-9.44-10.62-9.44s-10.62,4.23-10.62,9.44v8A10.76,10.76,0,0,0,33.17,75.15Z"></path><path class="cls-1" d="M43.79,78.25l-6.19-3.1H27L16.36,80.46c-5.32,2.66-8,11.31-8,15.93H26"></path><path class="cls-1" d="M63.26,87.54c-6.84,0-12.39-6.43-12.39-14.39V64.61a12.39,12.39,0,1,1,24.78,0v8.54C75.65,81.11,70.11,87.54,63.26,87.54Z"></path><line class="cls-1" x1="54.41" y1="84" x2="54.41" y2="88.1"></line><path class="cls-1" d="M54.41,87.54c0,4.28,8.85,8.85,8.85,8.85l-10.62,7.08L49.1,91.59Z"></path><line class="cls-1" x1="59.72" y1="108.79" x2="57.95" y2="117.64"></line><line class="cls-1" x1="66.8" y1="108.79" x2="68.57" y2="117.64"></line><path class="cls-1" d="M49.1,91.59l-11.88,5c-5,3-7.59,5.71-7.59,13.47v7.59"></path><line class="cls-1" x1="72.11" y1="84" x2="72.11" y2="88.1"></line><path class="cls-1" d="M72.11,87.54c0,4.28-8.85,8.85-8.85,8.85l10.62,7.08,3.54-11.88Z"></path><polyline class="cls-1" points="69.77 101.58 66.8 108.78 59.72 108.78 56.75 101.58"></polyline><path class="cls-1" d="M77.42,91.59l11.88,5c5,3,7.59,5.71,7.59,13.47v7.59"></path></g></svg> 