<?xml version="1.0" encoding="UTF-8"?> <svg xmlns="http://www.w3.org/2000/svg" id="Layer_1" data-name="Layer 1" viewBox="0 0 111.73 91.78"><defs><style>.cls-1{fill:#fff;}</style></defs><title>Ameritrust Homepage Icons</title><path class="cls-1" d="M24.53,57.57H15.86a2,2,0,0,1,0-4h8.67a2,2,0,0,1,0,4Z"></path><path class="cls-1" d="M38.28,57.57H32.61a2,2,0,0,1,0-4h5.67a2,2,0,0,1,0,4Z"></path><path class="cls-1" d="M101.49,2.18H8.39a7,7,0,0,0-7,7V62.64a7,7,0,0,0,7,7H45.66v-4H8.39a3,3,0,0,1-3-3V9.18a3,3,0,0,1,3-3h93.1a3,3,0,0,1,3,3V62.64a3,3,0,0,1-3,3h-.68v4h.68a7,7,0,0,0,7-7V9.18A7,7,0,0,0,101.49,2.18Z"></path><path class="cls-1" d="M89.19,53.43l-.74-.12c-.73-8.15-7.27-14.55-15.21-14.55S58.75,45.16,58,53.31l-.74.12a8.15,8.15,0,0,0-6.62,8V80.27a7,7,0,0,0,7,7H88.81a7,7,0,0,0,7-7V61.46A8.14,8.14,0,0,0,89.19,53.43Zm-16-10.67c5.53,0,10.13,4.28,11.09,9.9a81.63,81.63,0,0,0-22.19,0C63.1,47,67.71,42.76,73.24,42.76ZM91.81,80.27a3,3,0,0,1-3,3H57.66a3,3,0,0,1-3-3V61.46A4.16,4.16,0,0,1,58,57.36a80.11,80.11,0,0,1,30.45,0,4.16,4.16,0,0,1,3.35,4.1Z"></path><path class="cls-1" d="M77.7,66.38a4.47,4.47,0,1,0-6.46,4v4.83a2,2,0,0,0,4,0V70.35A4.46,4.46,0,0,0,77.7,66.38Z"></path><rect class="cls-1" x="5.39" y="27.65" width="99.1" height="4"></rect><rect class="cls-1" x="5.39" y="16.65" width="99.1" height="4"></rect></svg> 